<svg width="25" height="26" viewBox="0 0 25 26" fill="none" xmlns="http://www.w3.org/2000/svg">
<path fill-rule="evenodd" clip-rule="evenodd" d="M15.5999 5.74994C15.6479 5.71481 15.6878 5.66991 15.7171 5.61819C15.7464 5.56648 15.7644 5.50913 15.7699 5.44994C15.7749 5.38953 15.7668 5.32876 15.7461 5.2718C15.7254 5.21483 15.6926 5.16303 15.6499 5.11994L12.8499 2.32994C12.7565 2.23833 12.6308 2.18701 12.4999 2.18701C12.3691 2.18701 12.2434 2.23833 12.1499 2.32994L9.34993 5.12994C9.31111 5.17287 9.28205 5.22371 9.26479 5.27896C9.24753 5.33421 9.24246 5.39254 9.24993 5.44994C9.24993 5.56994 9.31993 5.67994 9.40993 5.74994H9.42993C9.51488 5.8103 9.61814 5.83931 9.7221 5.83202C9.82605 5.82472 9.92425 5.78158 9.99993 5.70994L11.9999 3.70994V10.7499C11.9999 11.0299 12.2299 11.2499 12.4999 11.2499C12.7699 11.2499 12.9999 11.0299 12.9999 10.7499V3.67994L15.0199 5.69994C15.0999 5.76994 15.1999 5.81994 15.3199 5.82994C15.4299 5.83994 15.5299 5.80994 15.6199 5.74994V5.75994" fill="white"/>
<path fill-rule="evenodd" clip-rule="evenodd" d="M18 7.75H16.5C16.3674 7.75 16.2402 7.80268 16.1464 7.89645C16.0527 7.99021 16 8.11739 16 8.25C16 8.38261 16.0527 8.50979 16.1464 8.60355C16.2402 8.69732 16.3674 8.75 16.5 8.75H18.1C18.6 8.75 19 9.15 19 9.65V19.85C19 20.35 18.6 20.75 18.1 20.75H6.9C6.66131 20.75 6.43239 20.6552 6.2636 20.4864C6.09482 20.3176 6 20.0887 6 19.85V9.65C6 9.15 6.4 8.75 6.9 8.75H8.5C8.63188 8.74812 8.75769 8.69421 8.85 8.6C8.94421 8.50768 8.99812 8.38188 9 8.25C8.99812 8.11812 8.94421 7.99232 8.85 7.9C8.75769 7.80579 8.63188 7.75188 8.5 7.75H7C6.46957 7.75 5.96086 7.96071 5.58579 8.33579C5.21071 8.71086 5 9.21957 5 9.75V19.75C5 20.85 5.9 21.75 7 21.75H18C18.5304 21.75 19.0391 21.5393 19.4142 21.1642C19.7893 20.7891 20 20.2804 20 19.75V9.75C20 9.21957 19.7893 8.71086 19.4142 8.33579C19.0391 7.96071 18.5304 7.75 18 7.75Z" fill="white"/>
</svg>
