<svg width="25" height="26" viewBox="0 0 25 26" fill="none" xmlns="http://www.w3.org/2000/svg">
<path fill-rule="evenodd" clip-rule="evenodd" d="M19 6.75C19 6.21957 18.7893 5.71086 18.4142 5.33579C18.0391 4.96071 17.5304 4.75 17 4.75H8C7.46957 4.75 6.96086 4.96071 6.58579 5.33579C6.21071 5.71086 6 6.21957 6 6.75V21.41H6.01C6.02 21.51 6.06 21.61 6.13 21.69C6.21948 21.7857 6.34295 21.8425 6.47387 21.8481C6.60478 21.8537 6.73266 21.8077 6.83 21.72L12.5 17.6L18.16 21.73C18.2084 21.775 18.2653 21.8099 18.3273 21.8327C18.3893 21.8556 18.4552 21.8659 18.5213 21.8631C18.5873 21.8603 18.6521 21.8444 18.712 21.8165C18.7718 21.7885 18.8255 21.7489 18.87 21.7C18.9401 21.6187 18.9822 21.517 18.99 21.41H19V6.75ZM12.16 16.72L7 20.39V6.75C7 6.48478 7.10536 6.23043 7.29289 6.04289C7.48043 5.85536 7.73478 5.75 8 5.75H17C17.2652 5.75 17.5196 5.85536 17.7071 6.04289C17.8946 6.23043 18 6.48478 18 6.75V20.39L12.84 16.72C12.7487 16.632 12.6268 16.5828 12.5 16.5828C12.3732 16.5828 12.2513 16.632 12.16 16.72Z" fill="white"/>
</svg>
